<svg width="204" height="32" viewBox="0 0 204 32" fill="none" xmlns="http://www.w3.org/2000/svg">
<path d="M0.71625 24V1.6H3.75625V24H0.71625ZM7.98325 24V8.32H10.2233L10.7993 11.328L9.67925 10.848C10.7353 9.67467 11.7646 8.90667 12.7673 8.544C13.7806 8.18133 14.7673 8 15.7273 8C18.0206 8 19.6579 8.66133 20.6393 9.984C21.6313 11.3067 22.1273 13.0987 22.1273 15.36V24H19.2473V15.36C19.2473 13.696 18.9379 12.48 18.3193 11.712C17.7006 10.944 16.6446 10.56 15.1513 10.56C14.0953 10.56 13.1246 10.7947 12.2393 11.264C11.3646 11.7227 10.7886 12.4587 10.5113 13.472L10.8633 11.712V24H7.98325ZM26.79 24V10.56H24.07L24.454 8.32H26.79V4.608C26.79 3.21067 27.1633 2.096 27.91 1.264C28.6567 0.421331 29.7553 -1.90735e-06 31.206 -1.90735e-06C31.7393 -1.90735e-06 32.2033 0.0373319 32.598 0.112C33.0033 0.186666 33.3713 0.287999 33.702 0.415998L33.254 2.848C32.998 2.752 32.7473 2.68267 32.502 2.64C32.2567 2.58667 31.974 2.56 31.654 2.56C31.0353 2.56 30.55 2.736 30.198 3.088C29.846 3.42933 29.67 4 29.67 4.8V8.32H33.894V10.56H29.67V24H26.79ZM42.8313 24.32C41.1886 24.32 39.7859 23.9573 38.6233 23.232C37.4713 22.496 36.5859 21.5147 35.9673 20.288C35.3593 19.0507 35.0553 17.6747 35.0553 16.16C35.0553 14.6453 35.3593 13.2747 35.9673 12.048C36.5859 10.8107 37.4713 9.82933 38.6233 9.104C39.7859 8.368 41.1886 8 42.8313 8C44.4633 8 45.8606 8.368 47.0233 9.104C48.1859 9.82933 49.0713 10.8107 49.6793 12.048C50.2979 13.2747 50.6073 14.6453 50.6073 16.16C50.6073 17.6747 50.2979 19.0507 49.6793 20.288C49.0713 21.5147 48.1859 22.496 47.0233 23.232C45.8606 23.9573 44.4633 24.32 42.8313 24.32ZM42.8313 21.76C44.3886 21.76 45.5833 21.2693 46.4153 20.288C47.2473 19.296 47.6633 17.92 47.6633 16.16C47.6633 14.4 47.2473 13.0293 46.4153 12.048C45.5833 11.056 44.3886 10.56 42.8313 10.56C41.2846 10.56 40.0899 11.056 39.2473 12.048C38.4153 13.0293 37.9993 14.4 37.9993 16.16C37.9993 17.92 38.4153 19.296 39.2473 20.288C40.0899 21.2693 41.2846 21.76 42.8313 21.76ZM61.3725 24V1.6H68.6365C70.1938 1.6 71.5538 1.84 72.7165 2.32C73.8792 2.8 74.7805 3.54133 75.4205 4.544C76.0605 5.54667 76.3805 6.83733 76.3805 8.416C76.3805 9.952 76.0445 11.2373 75.3725 12.272C74.7112 13.3067 73.7458 14.1227 72.4765 14.72L77.5005 24H73.7885L69.2445 15.264C69.2125 15.264 69.1858 15.264 69.1645 15.264C69.1432 15.264 69.1165 15.264 69.0845 15.264H64.5725V24H61.3725ZM64.5725 12.544H68.6045C70.1298 12.544 71.2765 12.176 72.0445 11.44C72.8232 10.704 73.2125 9.696 73.2125 8.416C73.2125 7.11467 72.8232 6.10667 72.0445 5.392C71.2765 4.67733 70.1298 4.32 68.6045 4.32H64.5725V12.544ZM86.972 24.32C85.1267 24.32 83.5747 23.9413 82.316 23.184C81.0573 22.4267 80.1027 21.424 79.452 20.176C78.812 18.9173 78.492 17.536 78.492 16.032C78.492 14.5707 78.7907 13.232 79.388 12.016C79.996 10.8 80.8707 9.82933 82.012 9.104C83.164 8.368 84.5507 8 86.172 8C87.4733 8 88.6307 8.26133 89.644 8.784C90.668 9.296 91.468 10.048 92.044 11.04C92.6307 12.0213 92.924 13.216 92.924 14.624C92.924 14.848 92.9133 15.0933 92.892 15.36C92.8813 15.616 92.8493 15.8827 92.796 16.16H81.436C81.5747 17.6107 81.9213 18.7413 82.476 19.552C83.0307 20.3627 83.7293 20.9333 84.572 21.264C85.4147 21.5947 86.332 21.76 87.324 21.76C88.0493 21.76 88.8067 21.6853 89.596 21.536C90.3853 21.3867 91.132 21.152 91.836 20.832L92.22 23.104C91.612 23.3707 90.8707 23.6427 89.996 23.92C89.1213 24.1867 88.1133 24.32 86.972 24.32ZM81.692 14.176H89.948C89.948 13.44 89.8093 12.8 89.532 12.256C89.2547 11.712 88.8333 11.296 88.268 11.008C87.7027 10.7093 86.9827 10.56 86.108 10.56C84.828 10.56 83.8413 10.88 83.148 11.52C82.4653 12.1493 81.98 13.0347 81.692 14.176ZM95.827 31.744V8.32H98.067L98.579 11.904L97.779 11.328C98.4403 10.304 99.2563 9.49333 100.227 8.896C101.198 8.29867 102.387 8 103.795 8C105.224 8 106.451 8.36267 107.475 9.088C108.499 9.81333 109.283 10.7947 109.827 12.032C110.371 13.2587 110.643 14.6347 110.643 16.16C110.643 17.6853 110.387 19.0667 109.875 20.304C109.363 21.5307 108.6 22.5067 107.587 23.232C106.574 23.9573 105.31 24.32 103.795 24.32C102.547 24.32 101.416 24.064 100.403 23.552C99.4003 23.0293 98.675 22.2507 98.227 21.216L98.707 20.64V31.744H95.827ZM103.251 21.76C104.648 21.76 105.736 21.2693 106.515 20.288C107.304 19.296 107.699 17.92 107.699 16.16C107.699 14.4 107.304 13.0293 106.515 12.048C105.736 11.056 104.648 10.56 103.251 10.56C102.387 10.56 101.598 10.768 100.883 11.184C100.179 11.5893 99.6137 12.208 99.187 13.04C98.7603 13.8613 98.547 14.9013 98.547 16.16C98.547 17.472 98.7603 18.5387 99.187 19.36C99.6137 20.1813 100.179 20.7893 100.883 21.184C101.598 21.568 102.387 21.76 103.251 21.76ZM120.488 24.32C118.845 24.32 117.442 23.9573 116.28 23.232C115.128 22.496 114.242 21.5147 113.624 20.288C113.016 19.0507 112.712 17.6747 112.712 16.16C112.712 14.6453 113.016 13.2747 113.624 12.048C114.242 10.8107 115.128 9.82933 116.28 9.104C117.442 8.368 118.845 8 120.488 8C122.12 8 123.517 8.368 124.68 9.104C125.842 9.82933 126.728 10.8107 127.336 12.048C127.954 13.2747 128.264 14.6453 128.264 16.16C128.264 17.6747 127.954 19.0507 127.336 20.288C126.728 21.5147 125.842 22.496 124.68 23.232C123.517 23.9573 122.12 24.32 120.488 24.32ZM120.488 21.76C122.045 21.76 123.24 21.2693 124.072 20.288C124.904 19.296 125.32 17.92 125.32 16.16C125.32 14.4 124.904 13.0293 124.072 12.048C123.24 11.056 122.045 10.56 120.488 10.56C118.941 10.56 117.746 11.056 116.904 12.048C116.072 13.0293 115.656 14.4 115.656 16.16C115.656 17.92 116.072 19.296 116.904 20.288C117.746 21.2693 118.941 21.76 120.488 21.76ZM135.681 24.32C134.295 24.32 133.143 24.1547 132.225 23.824C131.319 23.4933 130.679 23.2 130.305 22.944L130.657 20.16C130.999 20.4587 131.601 20.8 132.465 21.184C133.329 21.568 134.359 21.76 135.553 21.76C136.567 21.76 137.34 21.5893 137.873 21.248C138.417 20.9067 138.689 20.4267 138.689 19.808C138.689 19.264 138.513 18.8267 138.161 18.496C137.82 18.1547 137.404 17.888 136.913 17.696C136.433 17.4933 135.98 17.3333 135.553 17.216C134.839 17.024 134.097 16.784 133.329 16.496C132.572 16.1973 131.932 15.7547 131.409 15.168C130.887 14.5813 130.625 13.76 130.625 12.704C130.625 11.904 130.817 11.1467 131.201 10.432C131.585 9.70667 132.209 9.12 133.073 8.672C133.937 8.224 135.084 8 136.513 8C137.559 8 138.407 8.112 139.057 8.336C139.719 8.54933 140.289 8.77867 140.769 9.024L140.417 11.648C139.959 11.264 139.425 10.9387 138.817 10.672C138.209 10.4053 137.463 10.272 136.577 10.272C135.681 10.272 134.951 10.4427 134.385 10.784C133.82 11.1147 133.537 11.648 133.537 12.384C133.537 13.12 133.836 13.6427 134.433 13.952C135.041 14.2613 135.959 14.6027 137.185 14.976C137.569 15.0827 138.012 15.2373 138.513 15.44C139.025 15.6427 139.521 15.9147 140.001 16.256C140.481 16.5973 140.876 17.0453 141.185 17.6C141.505 18.144 141.665 18.8267 141.665 19.648C141.665 20.3413 141.5 21.0507 141.169 21.776C140.839 22.4907 140.241 23.0933 139.377 23.584C138.513 24.0747 137.281 24.32 135.681 24.32ZM144.483 24V8.32H147.363V24H144.483ZM144.483 4.8V1.6H147.363V4.8H144.483ZM156.673 24.32C155.681 24.32 154.886 24.1387 154.289 23.776C153.691 23.4133 153.254 22.9493 152.977 22.384C152.71 21.808 152.577 21.2053 152.577 20.576V10.56H149.889L150.145 8.32H152.577V4.448L155.457 4.16V8.32H159.585V10.56H155.457V18.816C155.457 19.8187 155.515 20.544 155.633 20.992C155.75 21.44 156.038 21.7227 156.497 21.84C156.966 21.9573 157.718 22.016 158.753 22.016H159.489L159.265 24.32H156.673ZM168.769 24.32C167.126 24.32 165.723 23.9573 164.561 23.232C163.409 22.496 162.523 21.5147 161.905 20.288C161.297 19.0507 160.993 17.6747 160.993 16.16C160.993 14.6453 161.297 13.2747 161.905 12.048C162.523 10.8107 163.409 9.82933 164.561 9.104C165.723 8.368 167.126 8 168.769 8C170.401 8 171.798 8.368 172.961 9.104C174.123 9.82933 175.009 10.8107 175.617 12.048C176.235 13.2747 176.545 14.6453 176.545 16.16C176.545 17.6747 176.235 19.0507 175.617 20.288C175.009 21.5147 174.123 22.496 172.961 23.232C171.798 23.9573 170.401 24.32 168.769 24.32ZM168.769 21.76C170.326 21.76 171.521 21.2693 172.353 20.288C173.185 19.296 173.601 17.92 173.601 16.16C173.601 14.4 173.185 13.0293 172.353 12.048C171.521 11.056 170.326 10.56 168.769 10.56C167.222 10.56 166.027 11.056 165.185 12.048C164.353 13.0293 163.937 14.4 163.937 16.16C163.937 17.92 164.353 19.296 165.185 20.288C166.027 21.2693 167.222 21.76 168.769 21.76ZM179.515 24V8.32H181.883L182.235 10.912C183.035 9.92 183.797 9.18933 184.523 8.72C185.259 8.24 186.043 8 186.875 8C187.141 8 187.387 8.032 187.611 8.096L187.323 11.264C187.184 11.232 187.035 11.2107 186.875 11.2C186.725 11.1787 186.555 11.168 186.363 11.168C185.531 11.168 184.763 11.3547 184.059 11.728C183.365 12.0907 182.875 12.4907 182.587 12.928V24H179.515ZM190.824 31.744L194.44 23.296L187.912 8.32H191.112L196.008 19.968L200.424 8.32H203.624L194.024 31.744H190.824Z" fill="#0b5563"/>
</svg>
